<svg id="Layer_1" data-name="Layer 1" xmlns="http://www.w3.org/2000/svg" xmlns:xlink="http://www.w3.org/1999/xlink" viewBox="0 0 501.10004 501.10004"><defs><style>.cls-1,.cls-2{stroke:#fff;stroke-miterlimit:10;}.cls-1{fill:url(#linear-gradient);}.cls-2{fill:#fff;}</style><linearGradient id="linear-gradient" x1="0.5" y1="250.55002" x2="500.60004" y2="250.55002" gradientUnits="userSpaceOnUse"><stop offset="0.01667" stop-color="#4acc6a"/><stop offset="1" stop-color="#5eca69"/></linearGradient></defs><title>BANK 3</title><g id="Layer_3" data-name="Layer 3"><path class="cls-1" d="M78.2.5H422.9a77.71606,77.71606,0,0,1,77.7,77.7V422.9a77.71606,77.71606,0,0,1-77.7,77.7H78.2A77.716,77.716,0,0,1,.5,422.9V78.2A77.716,77.716,0,0,1,78.2.5Z"/></g><rect class="cls-2" x="95.3" y="247.8" width="326.10002" height="35.90001"/><rect class="cls-2" x="95.3" y="296.20001" width="326.10002" height="23.5"/><rect class="cls-2" x="83.3" y="380.89999" width="349.60002" height="35.5"/><polyline class="cls-2" points="156.1 247.8 156.1 211.5 180.5 211.5 180.5 247.8"/><polyline class="cls-2" points="361 247.8 361 211.5 336.6 211.5 336.6 247.8"/><polyline class="cls-2" points="216.4 247.8 216.4 211.5 239.9 211.5 239.9 247.8"/><polyline class="cls-2" points="276.3 247.8 276.3 211.5 300.7 211.5 300.7 247.8"/><polyline class="cls-2" points="95.3 380.9 95.3 311.4 120.6 311.4 120.6 380.9"/><polyline class="cls-2" points="421.4 380.9 421.4 313.7 397 313.7 397 380.9"/><polyline class="cls-2" points="156.1 380.9 156.1 344.6 180.5 344.6 180.5 380.9"/><polyline class="cls-2" points="216.4 380.9 216.4 344.6 239.9 344.6 239.9 380.9"/><polyline class="cls-2" points="276.3 380.9 276.3 344.6 300.7 344.6 300.7 380.9"/><polyline class="cls-2" points="336.6 380.9 336.6 344.6 361 344.6 361 380.9"/><path class="cls-2" d="M156.1,186.1H361c-.7-9.8-3.7-32.1-20.3-52.5a91.77244,91.77244,0,0,0-29.4-23.5A107.55126,107.55126,0,0,0,258,97.7c-4.9-.3-53.7-2.4-83.1,35.5C158.8,154,156.5,176.5,156.1,186.1Z"/><path class="cls-2" d="M327,99.1"/><path class="cls-2" d="M306.7,81.6"/><polyline class="cls-2" points="239.9 102.5 239.9 54.9 300.4 54.9 300.4 90.9 258.6 91.1 258.6 98.5"/></svg>